<?xml version="1.0" standalone="no"?><!DOCTYPE svg PUBLIC "-//W3C//DTD SVG 1.1//EN" "http://www.w3.org/Graphics/SVG/1.1/DTD/svg11.dtd">
<svg x="0.0000mm" y="0.0000mm" width="67.2040mm" height="26.4580mm" viewBox="0.0000 0.0000 67.2040 26.4580" version="1.1" xmlns="http://www.w3.org/2000/svg" shape-rendering="crispEdges">
<title>TBarCode - 11.11.0.16177</title>
<desc>BarCode licensed to MEM:TEC-IT Datenverarbeitung GmbH Internal License</desc>
<g fill="rgb(0%,0%,0%)">
</g>
<g fill="rgb(100%,100%,100%)">
<rect x="0.0000" y="0.0000" width="67.2040" height="26.4580" />
</g>
<g fill="rgb(0%,0%,0%)">
</g>
<g fill="rgb(0%,0%,0%)">
<rect x="0.0000" y="0.0000" width="0.5292" height="20.1864" />
<rect x="1.0583" y="0.0000" width="0.5292" height="20.1864" />
<rect x="2.1167" y="0.0000" width="2.1167" height="20.1864" />
<rect x="4.7625" y="0.0000" width="1.0583" height="20.1864" />
<rect x="6.3500" y="0.0000" width="0.5292" height="20.1864" />
<rect x="7.9375" y="0.0000" width="0.5292" height="20.1864" />
<rect x="9.5250" y="0.0000" width="1.0583" height="20.1864" />
<rect x="11.1125" y="0.0000" width="0.5292" height="20.1864" />
<rect x="12.1708" y="0.0000" width="0.5292" height="20.1864" />
<rect x="14.2875" y="0.0000" width="1.0583" height="20.1864" />
<rect x="15.8750" y="0.0000" width="1.0583" height="20.1864" />
<rect x="17.9916" y="0.0000" width="0.5292" height="20.1864" />
<rect x="19.0500" y="0.0000" width="1.0583" height="20.1864" />
<rect x="20.6374" y="0.0000" width="0.5292" height="20.1864" />
<rect x="22.7541" y="0.0000" width="0.5292" height="20.1864" />
<rect x="23.8124" y="0.0000" width="0.5292" height="20.1864" />
<rect x="25.3999" y="0.0000" width="0.5292" height="20.1864" />
<rect x="26.4583" y="0.0000" width="1.0583" height="20.1864" />
<rect x="28.5749" y="0.0000" width="1.0583" height="20.1864" />
<rect x="30.6916" y="0.0000" width="0.5292" height="20.1864" />
<rect x="31.7499" y="0.0000" width="0.5292" height="20.1864" />
<rect x="33.3374" y="0.0000" width="1.0583" height="20.1864" />
<rect x="35.4541" y="0.0000" width="0.5292" height="20.1864" />
<rect x="37.0416" y="0.0000" width="0.5292" height="20.1864" />
<rect x="38.0999" y="0.0000" width="1.5875" height="20.1864" />
<rect x="40.2166" y="0.0000" width="0.5292" height="20.1864" />
<rect x="41.8041" y="0.0000" width="0.5292" height="20.1864" />
<rect x="42.8624" y="0.0000" width="0.5292" height="20.1864" />
<rect x="43.9207" y="0.0000" width="0.5292" height="20.1864" />
<rect x="46.5666" y="0.0000" width="0.5292" height="20.1864" />
<rect x="47.6249" y="0.0000" width="0.5292" height="20.1864" />
<rect x="50.2707" y="0.0000" width="0.5292" height="20.1864" />
<rect x="51.3290" y="0.0000" width="0.5292" height="20.1864" />
<rect x="52.3874" y="0.0000" width="0.5292" height="20.1864" />
<rect x="53.4457" y="0.0000" width="0.5292" height="20.1864" />
<rect x="55.0332" y="0.0000" width="0.5292" height="20.1864" />
<rect x="57.1499" y="0.0000" width="0.5292" height="20.1864" />
<rect x="58.2082" y="0.0000" width="0.5292" height="20.1864" />
<rect x="59.7957" y="0.0000" width="1.0583" height="20.1864" />
<rect x="61.9123" y="0.0000" width="0.5292" height="20.1864" />
<rect x="62.9707" y="0.0000" width="0.5292" height="20.1864" />
<rect x="64.0290" y="0.0000" width="2.1167" height="20.1864" />
<rect x="66.6748" y="0.0000" width="0.5292" height="20.1864" />
</g>
<g fill="rgb(0%,0%,0%)">
<text x="33.6020" y="25.2821" transform="rotate(360 33.6020,25.2821)" text-anchor="middle" font-family="Arial" font-size="5.6444" >BARCODE 39</text>
</g>
</svg>
